<?xml version="1.0" standalone="no"?>
<!DOCTYPE svg PUBLIC "-//W3C//DTD SVG 20010904//EN"
 "http://www.w3.org/TR/2001/REC-SVG-20010904/DTD/svg10.dtd">
<svg version="1.0" xmlns="http://www.w3.org/2000/svg"
 width="340.000000pt" height="270.000000pt" viewBox="0 0 340.000000 270.000000"
 preserveAspectRatio="xMidYMid meet">
<metadata>
Created by potrace 1.16, written by Peter Selinger 2001-2019
</metadata>
<g transform="translate(0.000000,270.000000) scale(0.100000,-0.100000)"
fill="#000000" stroke="none">
<path d="M1820 2205 c0 -14 -25 -82 -56 -150 -49 -109 -59 -125 -80 -125 -28
0 -33 30 -9 50 34 28 8 120 -33 120 -32 0 -43 -85 -16 -125 9 -13 14 -30 11
-37 -7 -21 12 -48 35 -48 15 0 19 -5 15 -17 -51 -173 -97 -337 -97 -345 0 -6
-39 -100 -87 -210 -78 -180 -88 -199 -107 -194 -12 3 -41 6 -65 6 l-44 0 4
433 c4 421 4 432 24 437 28 8 33 40 6 40 -17 0 -21 6 -21 30 0 17 5 30 10 30
6 0 10 14 10 30 l0 30 -95 0 -95 0 0 -30 c0 -16 5 -30 10 -30 7 0 10 -226 10
-657 l0 -657 26 52 c24 49 95 122 118 122 7 0 10 26 8 72 l-3 73 56 -3 56 -4
-6 -53 -7 -53 51 -11 c70 -15 101 -32 145 -81 55 -61 68 -100 64 -189 l-3 -75
50 -13 c35 -9 138 -13 351 -13 l300 0 0 63 c1 132 95 227 226 227 131 -1 238
-115 226 -242 -3 -37 -2 -38 27 -38 17 0 41 7 53 16 21 15 22 21 22 191 0 166
-1 175 -20 180 -17 5 -20 14 -20 68 0 58 2 64 22 67 20 3 22 9 24 68 2 77 -6
97 -51 116 -44 18 -96 18 -186 -1 -40 -9 -73 -14 -74 -13 -1 2 -7 167 -13 368
l-10 365 -41 70 c-23 38 -41 80 -41 92 l0 23 -340 0 -340 0 0 -25z m637 -97
l40 -73 11 -365 c5 -201 9 -366 8 -366 0 -1 -40 -4 -88 -8 -59 -5 -88 -4 -88
3 0 6 11 11 25 11 19 0 25 5 25 23 0 12 11 82 25 156 14 74 25 136 25 138 0 1
-12 3 -28 3 -27 0 -29 -4 -61 -119 l-34 -119 -86 -7 c-47 -3 -126 -9 -176 -13
l-90 -7 0 -30 c0 -25 4 -30 28 -33 51 -6 27 -42 -28 -42 -44 0 -61 -29 -86
-142 l-23 -108 -59 0 -59 0 6 58 c4 31 8 126 11 211 4 148 11 181 39 181 6 0
28 23 48 50 40 54 40 64 -1 28 l-25 -23 23 33 c26 38 26 38 85 12 76 -32 54
-1 -49 70 -101 70 -115 77 -115 61 0 -5 14 -18 30 -28 17 -10 33 -28 37 -41 7
-29 -15 -72 -43 -82 -23 -9 -38 -36 -28 -51 3 -5 1 -17 -5 -26 -9 -16 -11 -15
-20 9 -5 14 -24 34 -40 44 -17 10 -31 21 -31 25 0 17 52 202 78 279 16 47 58
144 92 217 l63 132 116 4 c64 1 181 4 262 5 l145 2 41 -72z"/>
<path d="M1100 1363 c-1 -5 -1 -70 0 -145 1 -132 0 -138 -19 -138 -20 0 -21
-7 -23 -222 l-3 -223 -270 -6 c-314 -7 -295 -6 -295 -19 0 -6 105 -10 296 -10
287 0 296 1 301 20 3 13 14 20 29 20 l24 0 0 365 c0 358 0 365 -20 365 -11 0
-20 -3 -20 -7z"/>
<path d="M1305 952 c-91 -43 -152 -150 -142 -248 22 -215 289 -299 430 -134
95 111 68 287 -57 365 -63 39 -168 46 -231 17z m159 -96 c68 -29 103 -121 69
-186 -69 -134 -263 -90 -263 60 0 103 98 166 194 126z"/>
<path d="M1342 805 c-36 -30 -47 -66 -32 -110 31 -93 170 -88 194 8 25 97 -86
166 -162 102z"/>
<path d="M2510 869 c-81 -33 -130 -106 -130 -194 0 -194 229 -278 358 -131 67
77 67 185 -1 263 -55 63 -155 90 -227 62z m138 -95 c28 -19 52 -65 52 -99 0
-34 -24 -80 -52 -99 -13 -9 -43 -16 -69 -16 -88 0 -141 85 -104 164 10 20 29
43 44 51 35 19 101 19 129 -1z"/>
<path d="M2524 736 c-57 -49 -22 -146 53 -146 46 0 68 13 83 49 36 88 -64 159
-136 97z"/>
</g>
</svg>
